<?xml version="1.0" encoding="utf-8"?>
<!-- Generator: Adobe Illustrator 16.0.0, SVG Export Plug-In . SVG Version: 6.00 Build 0)  -->
<!DOCTYPE svg PUBLIC "-//W3C//DTD SVG 1.1//EN" "http://www.w3.org/Graphics/SVG/1.1/DTD/svg11.dtd">
<svg version="1.1" id="Layer_1" xmlns="http://www.w3.org/2000/svg" xmlns:xlink="http://www.w3.org/1999/xlink" x="0px" y="0px"
	 width="477.566px" height="150.013px" viewBox="0 0 477.566 150.013" enable-background="new 0 0 477.566 150.013"
	 xml:space="preserve">
<g>
	<path fill="#444141" d="M419.094,104.738c-12.504,0-22.655,10.117-22.655,22.621c0,12.52,10.151,22.654,22.655,22.654
		c12.454,0,22.638-10.135,22.638-22.654C441.731,114.873,431.581,104.738,419.094,104.738z M419.077,137.281
		c-5.479,0-9.97-4.443-9.97-9.945c0-5.438,4.441-9.922,9.97-9.922c5.43,0,9.938,4.443,9.938,9.922
		C429.015,132.837,424.556,137.281,419.077,137.281z M366.231,104.738c-12.471,0-22.622,10.117-22.622,22.621
		c0,12.52,10.135,22.654,22.622,22.654c12.504,0,22.655-10.135,22.655-22.654C388.87,114.873,378.735,104.738,366.231,104.738z
		 M366.231,137.281c-5.446,0-9.921-4.443-9.921-9.945c0-5.438,4.458-9.922,9.921-9.922c5.495,0,9.921,4.443,9.921,9.922
		C376.152,132.837,371.711,137.281,366.231,137.281z M312.679,104.738c-12.504,0-22.655,10.117-22.655,22.621
		c0,12.52,10.135,22.654,22.655,22.654c12.454,0,22.622-10.135,22.622-22.654C335.301,114.873,325.166,104.738,312.679,104.738z
		 M312.679,137.281c-5.479,0-10.003-4.443-10.003-9.945c0-5.438,4.458-9.922,10.003-9.922c5.43,0,9.92,4.443,9.92,9.922
		C322.599,132.837,318.157,137.281,312.679,137.281z M83.033,24.745c0,0,13.491-12.233,37.924-23.239v23.239H83.033z M123.639,0
		v29.869c-0.658,0-1.266,0-1.892,0v86.121v6.145h163.571c2.781-12.725,14.116-22.285,27.592-22.285
		c12.47,0,23.001,8.047,26.851,19.201c3.801-11.137,14.346-19.201,26.768-19.201c12.06,0,22.343,7.57,26.439,18.23
		c4.08-10.66,14.347-18.23,26.438-18.23c13.509,0,24.894,9.561,27.641,22.285h23.281V94.291h7.239V0H123.639z M463.91,108.388
		h-3.521V94.306h3.521V108.388z M48.517,119.132c-0.346,1.588-0.56,3.24-0.56,4.92c0,1.414,0.182,2.779,0.461,4.129H0v-9.049H48.517
		z M109.735,119.132h9.478v9.033h-9.329c0.182-1.334,0.329-2.715,0.329-4.113C110.213,122.357,109.999,120.703,109.735,119.132z
		 M284.973,124.052c-0.182,1.348-0.313,2.73-0.313,4.129c0,0.855,0.065,1.654,0.114,2.518H121.763v-6.646H284.973L284.973,124.052z
		 M447.375,124.052h25.452v6.629h-25.254c0.065-0.846,0.131-1.66,0.131-2.5C447.704,126.783,447.573,125.4,447.375,124.052z
		 M36.934,70.688L0,80.625v22.707v13.293h50.704c3.34-13.08,15.17-22.789,29.303-22.789c14.083,0,25.879,9.668,29.252,22.789h10.152
		V29.729H55.64L36.934,70.688z M87.838,36.335l-0.016,21.52l-18.214,15.31H45.291l13.524-36.83H87.838z M80.089,101.091
		c-13.409-0.018-24.285,10.859-24.285,24.268c0,13.416,10.876,24.275,24.285,24.275c13.392,0,24.268-10.842,24.268-24.275
		C104.339,111.951,93.464,101.091,80.089,101.091z M80.089,136.005c-5.891,0-10.661-4.771-10.661-10.67
		c0-5.85,4.721-10.646,10.661-10.646c5.874,0,10.628,4.756,10.628,10.646C90.717,131.234,85.962,136.005,80.089,136.005z"/>
</g>
</svg>
